<svg xmlns="http://www.w3.org/2000/svg" width="47" height="60"><path d="M46.32 46.32c1.2 1.36 1.32 2.6.36 3.72l-2.76 2.76c-1.44 1.28-2.8 1.28-4.08 0l-11.4-11.4c-2.96 1.68-6.08 2.52-9.36 2.52-5.12 0-9.58-1.9-13.38-5.7S0 29.96 0 24.84c0-5.12 1.8-9.5 5.4-13.14s7.96-5.46 13.08-5.46 9.6 1.9 13.44 5.7 5.76 8.26 5.76 13.38c0 3.52-.92 6.76-2.76 9.72l11.4 11.28zM5.64 24.84c0 3.52 1.36 6.64 4.08 9.36s5.84 4.08 9.36 4.08c3.52 0 6.54-1.26 9.06-3.78s3.78-5.58 3.78-9.18c0-3.52-1.36-6.62-4.08-9.3S22 12 18.48 12c-3.52 0-6.54 1.26-9.06 3.78s-3.78 5.54-3.78 9.06z" fill="#fff"/></svg>